# xmcd CD database file
#
# Track frame offsets:
#	150
#	13054
#	25280
#	38676
#	53054
#	65696
#	76629
#	86555
#	103469
#	120631
#	133730
#	142888
#	153433
#	168330
#	184061
#	197481
#	210234
#	222241
#	235976
#	252270
#	266676
#	279521
#	294110
#	309511
#	321524
#	336718
#
# Disc length: 4687 seconds
#
# Revision: 0
# Processed by: cddbd v1.5.2PL0 Copyright (c) Steve Scherf et al.
# Submitted via: CDex 1.51
#
DISCID=7c124d1a
DTITLE=Django Reinhardt - Plays Django Reinhardt (Disk 5, 1948-1953)
DYEAR=2007
DGENRE=Jazz
TTITLE0=Mike
TTITLE1=Festival 48
TTITLE2=Fantaisie
TTITLE3=Just for Fun
TTITLE4=Djangology
TTITLE5=Daphne
TTITLE6=Improvisation No 4
TTITLE7=Artillerie Lourde
TTITLE8=Bricktop
TTITLE9=Swing Guitars
TTITLE10=Webster
TTITLE11=Micro (Mike)
TTITLE12=Place de Brouckere
TTITLE13=Boogie-Woogie
TTITLE14=Double Whisky
TTITLE15=Impromptu
TTITLE16=Vamp
TTITLE17=Fleche D'or
TTITLE18=Troublant Bolero
TTITLE19=Nuits de Saint-Germain-des-Pres
TTITLE20=Anouman
TTITLE21=D.R. Blues
TTITLE22=Blues for Ike
TTITLE23=Manoir de Mes Reves
TTITLE24=Deccaphonie
TTITLE25=Nuages
EXTD=YEAR: 2007
EXTT0=
EXTT1=
EXTT2=
EXTT3=
EXTT4=
EXTT5=
EXTT6=
EXTT7=
EXTT8=
EXTT9=
EXTT10=
EXTT11=
EXTT12=
EXTT13=
EXTT14=
EXTT15=
EXTT16=
EXTT17=
EXTT18=
EXTT19=
EXTT20=
EXTT21=
EXTT22=
EXTT23=
EXTT24=
EXTT25=
PLAYORDER=
